<?xml version="1.0" encoding="UTF-8" standalone="no"?>
<!-- Created with Inkscape (http://www.inkscape.org/) -->

<svg
   xmlns:dc="http://purl.org/dc/elements/1.1/"
   xmlns:cc="http://creativecommons.org/ns#"
   xmlns:rdf="http://www.w3.org/1999/02/22-rdf-syntax-ns#"
   xmlns:svg="http://www.w3.org/2000/svg"
   xmlns="http://www.w3.org/2000/svg"
   xmlns:xlink="http://www.w3.org/1999/xlink"
   xmlns:sodipodi="http://sodipodi.sourceforge.net/DTD/sodipodi-0.dtd"
   xmlns:inkscape="http://www.inkscape.org/namespaces/inkscape"
   width="210mm"
   height="297mm"
   id="svg2"
   version="1.1"
   inkscape:version="0.48.4 r9939"
   sodipodi:docname="app_icon.svg"
   inkscape:export-filename="D:\Development\Projects\infected_ember\public\assets\images\app_icon_64x64.png"
   inkscape:export-xdpi="90"
   inkscape:export-ydpi="90">
  <defs
     id="defs4">
    <linearGradient
       id="linearGradient3872">
      <stop
         style="stop-color:#ed0921;stop-opacity:1;"
         offset="0"
         id="stop3874" />
      <stop
         style="stop-color:#0a0d14;stop-opacity:1;"
         offset="1"
         id="stop3876" />
    </linearGradient>
    <filter
       id="filter4745"
       inkscape:label="Apparition"
       x="0"
       y="0"
       width="1"
       height="1"
       inkscape:menu="Blurs"
       inkscape:menu-tooltip="Edges are partly feathered out"
       color-interpolation-filters="sRGB">
      <feMorphology
         id="feMorphology4747"
         radius="4"
         in="SourceGraphic"
         result="result0" />
      <feGaussianBlur
         id="feGaussianBlur4749"
         in="result0"
         stdDeviation="8"
         result="result91" />
      <feComposite
         id="feComposite4751"
         in2="result91"
         operator="in"
         in="SourceGraphic" />
    </filter>
    <filter
       id="filter4737"
       inkscape:label="Apparition"
       x="0"
       y="0"
       width="1"
       height="1"
       inkscape:menu="Blurs"
       inkscape:menu-tooltip="Edges are partly feathered out"
       color-interpolation-filters="sRGB">
      <feMorphology
         id="feMorphology4739"
         radius="4"
         in="SourceGraphic"
         result="result0" />
      <feGaussianBlur
         id="feGaussianBlur4741"
         in="result0"
         stdDeviation="8"
         result="result91" />
      <feComposite
         id="feComposite4743"
         in2="result91"
         operator="in"
         in="SourceGraphic" />
    </filter>
    <filter
       id="filter3329-2"
       inkscape:label="Motion blur, vertical"
       inkscape:menu="Blurs"
       inkscape:menu-tooltip="Blur as if the object flies vertically; adjust Standard Deviation to vary force"
       color-interpolation-filters="sRGB">
      <feGaussianBlur
         id="feGaussianBlur3331-4"
         in="SourceGraphic"
         stdDeviation="0.01 5" />
    </filter>
    <filter
       id="filter3323-48"
       inkscape:label="Motion blur, vertical"
       inkscape:menu="Blurs"
       inkscape:menu-tooltip="Blur as if the object flies vertically; adjust Standard Deviation to vary force"
       color-interpolation-filters="sRGB">
      <feGaussianBlur
         id="feGaussianBlur3325-8"
         in="SourceGraphic"
         stdDeviation="0.01 5" />
    </filter>
    <linearGradient
       id="linearGradient5278-7-7">
      <stop
         id="stop5280-4-4"
         offset="0"
         style="stop-color:#ffffff;stop-opacity:0.96111113;" />
      <stop
         id="stop5282-0-0"
         offset="1"
         style="stop-color:#838383;stop-opacity:1;" />
    </linearGradient>
    <linearGradient
       id="linearGradient3056">
      <stop
         id="stop3058"
         offset="0"
         style="stop-color:#ffffff;stop-opacity:0.96111113;" />
      <stop
         id="stop3060"
         offset="1"
         style="stop-color:#838383;stop-opacity:1;" />
    </linearGradient>
    <filter
       id="filter4396"
       inkscape:label="Darken edges"
       inkscape:menu="Shadows and Glows"
       inkscape:menu-tooltip="Darken the edges with an inner blur"
       color-interpolation-filters="sRGB">
      <feGaussianBlur
         id="feGaussianBlur4398"
         result="result6"
         stdDeviation="1.5" />
      <feComposite
         id="feComposite4400"
         in2="result6"
         operator="atop"
         in="SourceGraphic"
         result="result8" />
      <feComposite
         id="feComposite4402"
         in2="SourceAlpha"
         in="result8"
         operator="atop"
         result="result9" />
    </filter>
    <filter
       id="filter4396-1"
       inkscape:label="Darken edges"
       inkscape:menu="Shadows and Glows"
       inkscape:menu-tooltip="Darken the edges with an inner blur"
       color-interpolation-filters="sRGB">
      <feGaussianBlur
         id="feGaussianBlur4398-5"
         result="result6"
         stdDeviation="1.5" />
      <feComposite
         id="feComposite4400-2"
         in2="result6"
         operator="atop"
         in="SourceGraphic"
         result="result8" />
      <feComposite
         id="feComposite4402-7"
         in2="SourceAlpha"
         in="result8"
         operator="atop"
         result="result9" />
    </filter>
    <filter
       id="filter4396-1-1"
       inkscape:label="Darken edges"
       inkscape:menu="Shadows and Glows"
       inkscape:menu-tooltip="Darken the edges with an inner blur"
       color-interpolation-filters="sRGB">
      <feGaussianBlur
         id="feGaussianBlur4398-5-4"
         result="result6"
         stdDeviation="1.5" />
      <feComposite
         id="feComposite4400-2-2"
         in2="result6"
         operator="atop"
         in="SourceGraphic"
         result="result8" />
      <feComposite
         id="feComposite4402-7-3"
         in2="SourceAlpha"
         in="result8"
         operator="atop"
         result="result9" />
    </filter>
    <radialGradient
       inkscape:collect="always"
       xlink:href="#linearGradient3872-7"
       id="radialGradient3878-1"
       cx="342.57474"
       cy="477.82394"
       fx="342.57474"
       fy="477.82394"
       r="32"
       gradientUnits="userSpaceOnUse"
       gradientTransform="matrix(1.3549346,0.02445907,-0.02574449,1.4261411,-109.29031,-211.9995)" />
    <linearGradient
       id="linearGradient3872-7">
      <stop
         style="stop-color:#ed0921;stop-opacity:1;"
         offset="0"
         id="stop3874-4" />
      <stop
         style="stop-color:#0a0d14;stop-opacity:1;"
         offset="1"
         id="stop3876-0" />
    </linearGradient>
    <radialGradient
       r="32"
       fy="477.82394"
       fx="342.57474"
       cy="477.82394"
       cx="342.57474"
       gradientTransform="matrix(1.3549346,0.02445907,-0.02574449,1.4261411,-107.14747,-233.24948)"
       gradientUnits="userSpaceOnUse"
       id="radialGradient3038-4"
       xlink:href="#linearGradient3872-7-8"
       inkscape:collect="always" />
    <linearGradient
       id="linearGradient3872-7-8">
      <stop
         style="stop-color:#ed0921;stop-opacity:1;"
         offset="0"
         id="stop3874-4-8" />
      <stop
         style="stop-color:#0a0d14;stop-opacity:1;"
         offset="1"
         id="stop3876-0-2" />
    </linearGradient>
    <filter
       id="filter4396-4"
       inkscape:label="Darken edges"
       inkscape:menu="Shadows and Glows"
       inkscape:menu-tooltip="Darken the edges with an inner blur"
       color-interpolation-filters="sRGB">
      <feGaussianBlur
         id="feGaussianBlur4398-55"
         result="result6"
         stdDeviation="1.5" />
      <feComposite
         id="feComposite4400-1"
         in2="result6"
         operator="atop"
         in="SourceGraphic"
         result="result8" />
      <feComposite
         id="feComposite4402-71"
         in2="SourceAlpha"
         in="result8"
         operator="atop"
         result="result9" />
    </filter>
    <radialGradient
       inkscape:collect="always"
       xlink:href="#linearGradient3872-76"
       id="radialGradient3064-2"
       gradientUnits="userSpaceOnUse"
       gradientTransform="matrix(1.3549346,0.02445907,-0.02574449,1.4261411,-109.29031,-211.9995)"
       cx="342.57474"
       cy="477.82394"
       fx="342.57474"
       fy="477.82394"
       r="32" />
    <linearGradient
       id="linearGradient3872-76">
      <stop
         style="stop-color:#ed0921;stop-opacity:1;"
         offset="0"
         id="stop3874-1" />
      <stop
         style="stop-color:#0a0d14;stop-opacity:1;"
         offset="1"
         id="stop3876-4" />
    </linearGradient>
    <filter
       id="filter4396-2"
       inkscape:label="Darken edges"
       inkscape:menu="Shadows and Glows"
       inkscape:menu-tooltip="Darken the edges with an inner blur"
       color-interpolation-filters="sRGB">
      <feGaussianBlur
         id="feGaussianBlur4398-1"
         result="result6"
         stdDeviation="1.5" />
      <feComposite
         id="feComposite4400-6"
         in2="result6"
         operator="atop"
         in="SourceGraphic"
         result="result8" />
      <feComposite
         id="feComposite4402-8"
         in2="SourceAlpha"
         in="result8"
         operator="atop"
         result="result9" />
    </filter>
    <radialGradient
       inkscape:collect="always"
       xlink:href="#linearGradient3872-1"
       id="radialGradient3064-6"
       gradientUnits="userSpaceOnUse"
       gradientTransform="matrix(1.3549346,0.02445907,-0.02574449,1.4261411,-109.29031,-211.9995)"
       cx="342.57474"
       cy="477.82394"
       fx="342.57474"
       fy="477.82394"
       r="32" />
    <linearGradient
       id="linearGradient3872-1">
      <stop
         style="stop-color:#ed0921;stop-opacity:1;"
         offset="0"
         id="stop3874-8" />
      <stop
         style="stop-color:#0a0d14;stop-opacity:1;"
         offset="1"
         id="stop3876-9" />
    </linearGradient>
    <radialGradient
       r="32"
       fy="477.82394"
       fx="342.57474"
       cy="477.82394"
       cx="342.57474"
       gradientTransform="matrix(0.44298632,0.01195283,-0.01157307,0.42891137,110.65607,267.30534)"
       gradientUnits="userSpaceOnUse"
       id="radialGradient3181"
       xlink:href="#linearGradient3872-1"
       inkscape:collect="always" />
    <radialGradient
       inkscape:collect="always"
       xlink:href="#linearGradient3872"
       id="radialGradient3065"
       gradientUnits="userSpaceOnUse"
       gradientTransform="matrix(1.3549346,0.02445907,-0.02574449,1.4261411,-118.39745,-234.4995)"
       cx="342.57474"
       cy="477.82394"
       fx="342.57474"
       fy="477.82394"
       r="32" />
    <radialGradient
       inkscape:collect="always"
       xlink:href="#linearGradient3872-74"
       id="radialGradient3065-1"
       gradientUnits="userSpaceOnUse"
       gradientTransform="matrix(1.3549346,0.02445907,-0.02574449,1.4261411,-118.39745,-234.4995)"
       cx="342.57474"
       cy="477.82394"
       fx="342.57474"
       fy="477.82394"
       r="32" />
    <linearGradient
       id="linearGradient3872-74">
      <stop
         style="stop-color:#ed0921;stop-opacity:1;"
         offset="0"
         id="stop3874-0" />
      <stop
         style="stop-color:#0a0d14;stop-opacity:1;"
         offset="1"
         id="stop3876-94" />
    </linearGradient>
    <radialGradient
       r="32"
       fy="477.82394"
       fx="342.57474"
       cy="477.82394"
       cx="342.57474"
       gradientTransform="matrix(1.3549346,0.02445907,-0.02574449,1.4261411,-118.29361,-233.66976)"
       gradientUnits="userSpaceOnUse"
       id="radialGradient3156"
       xlink:href="#linearGradient3872-74"
       inkscape:collect="always" />
    <radialGradient
       r="32"
       fy="477.82394"
       fx="342.57474"
       cy="477.82394"
       cx="342.57474"
       gradientTransform="matrix(1.3549346,0.02445907,-0.02574449,1.4261411,-118.29361,-233.66976)"
       gradientUnits="userSpaceOnUse"
       id="radialGradient3156-8"
       xlink:href="#linearGradient3872-74-2"
       inkscape:collect="always" />
    <linearGradient
       id="linearGradient3872-74-2">
      <stop
         style="stop-color:#ed0921;stop-opacity:1;"
         offset="0"
         id="stop3874-0-4" />
      <stop
         style="stop-color:#0a0d14;stop-opacity:1;"
         offset="1"
         id="stop3876-94-5" />
    </linearGradient>
    <radialGradient
       r="32"
       fy="477.82394"
       fx="342.57474"
       cy="477.82394"
       cx="342.57474"
       gradientTransform="matrix(1.3549346,0.02445907,-0.02574449,1.4261411,-137.22219,-237.46125)"
       gradientUnits="userSpaceOnUse"
       id="radialGradient3190"
       xlink:href="#linearGradient3872-74-2"
       inkscape:collect="always" />
    <filter
       color-interpolation-filters="sRGB"
       inkscape:collect="always"
       id="filter4537-1">
      <feGaussianBlur
         inkscape:collect="always"
         stdDeviation="0.51683466"
         id="feGaussianBlur4539-1" />
    </filter>
    <filter
       id="filter4396-29"
       inkscape:label="Darken edges"
       inkscape:menu="Shadows and Glows"
       inkscape:menu-tooltip="Darken the edges with an inner blur"
       color-interpolation-filters="sRGB">
      <feGaussianBlur
         id="feGaussianBlur4398-3"
         result="result6"
         stdDeviation="1.5" />
      <feComposite
         id="feComposite4400-4"
         in2="result6"
         operator="atop"
         in="SourceGraphic"
         result="result8" />
      <feComposite
         id="feComposite4402-4"
         in2="SourceAlpha"
         in="result8"
         operator="atop"
         result="result9" />
    </filter>
    <clipPath
       clipPathUnits="userSpaceOnUse"
       id="clipPath3126">
      <rect
         style="fill:#ffffff;fill-opacity:1;stroke:none"
         id="rect3128"
         width="51.791183"
         height="49.720425"
         x="317.09219"
         y="451.79648"
         ry="5.3199077"
         mask="none" />
    </clipPath>
  </defs>
  <sodipodi:namedview
     id="base"
     pagecolor="#ffffff"
     bordercolor="#666666"
     borderopacity="1.0"
     inkscape:pageopacity="0.0"
     inkscape:pageshadow="2"
     inkscape:zoom="5.6"
     inkscape:cx="284.93746"
     inkscape:cy="587.61117"
     inkscape:document-units="px"
     inkscape:current-layer="layer2"
     showgrid="false"
     inkscape:window-width="1580"
     inkscape:window-height="959"
     inkscape:window-x="302"
     inkscape:window-y="0"
     inkscape:window-maximized="0" />
  <metadata
     id="metadata7">
    <rdf:RDF>
      <cc:Work
         rdf:about="">
        <dc:format>image/svg+xml</dc:format>
        <dc:type
           rdf:resource="http://purl.org/dc/dcmitype/StillImage" />
        <dc:title></dc:title>
      </cc:Work>
    </rdf:RDF>
  </metadata>
  <g
     inkscape:label="bg"
     inkscape:groupmode="layer"
     id="layer1"
     style="display:inline"
     sodipodi:insensitive="true">
    <rect
       style="fill:url(#radialGradient3190);fill-opacity:1;stroke:none;display:inline"
       id="rect3855-8"
       width="64"
       height="64"
       x="282.64288"
       y="420.36218"
       inkscape:export-filename="C:\xampp\htdocs\LittleRocket\images\store_images\AppIcon_1024x1024.png"
       inkscape:export-xdpi="90"
       inkscape:export-ydpi="90"
       ry="5.8083773" />
  </g>
  <g
     inkscape:groupmode="layer"
     id="layer2"
     inkscape:label="symbol"
     style="display:inline">
    <path
       style="fill:#00ff14;fill-opacity:1;stroke:none;display:inline;filter:url(#filter4396-29)"
       d="m 339.53884,452.91071 c -1.45977,0.3657 -2.892,0.95603 -4.22981,1.82462 -6.18572,4.01621 -8.08413,12.15568 -4.39568,18.45359 -0.0279,10e-4 -0.0551,-10e-4 -0.083,0 -7.57712,0.45152 -13.3483,6.97841 -12.89678,14.55553 0.076,1.27484 0.32025,2.46757 0.70498,3.60778 -1.17543,-4.50946 0.59968,-9.42885 4.72743,-12.10888 1.90184,-1.23479 4.02398,-1.84373 6.13737,-1.82462 3.29315,0.0297 6.51504,1.52846 8.66697,4.27128 l 2.32224,-1.4514 c -0.59428,-1.17254 -0.25583,-2.62747 0.87084,-3.35898 0.2972,-0.19295 0.62213,-0.31467 0.95379,-0.37321 l 0,-1.94903 c -0.4584,-0.022 -0.9177,-0.0894 -1.36846,-0.16588 -0.0268,-0.004 -0.0562,0.005 -0.083,0 -0.0428,-0.007 -0.0819,-0.0334 -0.12434,-0.0414 -0.083,-0.0156 -0.16632,-0.0239 -0.24881,-0.0414 -0.40602,-0.0865 -0.80832,-0.20016 -1.2026,-0.33175 -0.51338,-0.17134 -1.00741,-0.37598 -1.49286,-0.62203 -0.41253,-0.2091 -0.81632,-0.44322 -1.2026,-0.70497 -0.067,-0.0454 -0.14117,-0.0773 -0.20735,-0.12434 -1.02397,-0.72738 -1.90058,-1.64693 -2.654,-2.73693 -0.0616,-0.089 -0.148,-0.15742 -0.20734,-0.24881 -0.82535,-1.27118 -1.36287,-2.66241 -1.61728,-4.06395 -0.002,-0.0134 0.002,-0.0281 0,-0.0414 -0.006,-0.04 0.006,-0.0846 0,-0.12435 -0.1112,-0.66822 -0.17813,-1.32059 -0.16587,-1.9905 0.0133,-0.69625 0.10669,-1.39424 0.24881,-2.07343 0.002,-0.0133 -0.002,-0.0284 0,-0.0414 0.0708,-0.33289 0.14752,-0.66998 0.24881,-0.99525 0.004,-0.0119 -0.004,-0.0291 0,-0.0414 0.10254,-0.32534 0.24068,-0.63847 0.37322,-0.95378 0.005,-0.0119 -0.005,-0.03 0,-0.0414 0.13383,-0.31527 0.29283,-0.60947 0.45615,-0.91231 0.005,-0.0106 -0.005,-0.0313 0,-0.0414 0.16492,-0.3033 0.38647,-0.58245 0.58057,-0.87085 0.006,-0.01 -0.006,-0.0321 0,-0.0414 0.19522,-0.2881 0.39808,-0.55857 0.62203,-0.82938 0.006,-0.007 -0.006,-0.0338 0,-0.0414 0.69657,-0.83699 1.52594,-1.57315 2.48813,-2.19784 0.88152,-0.57233 1.82478,-1.02524 2.77839,-1.327 z m 7.2985,0.24881 c 2.0035,0.78438 3.80054,2.16309 5.10065,4.06393 l 0.12435,0.24882 c 2.21019,3.40409 2.30179,7.56293 0.62202,10.94774 -0.24457,0.49284 -0.51026,0.95449 -0.82936,1.40995 -0.7931,1.1319 -1.7954,2.1445 -3.02722,2.94427 -0.01,0.006 -0.0321,-0.006 -0.0414,0 -0.24409,0.15848 -0.49505,0.31926 -0.74643,0.45616 -0.0693,0.0376 -0.13751,0.0885 -0.20735,0.12434 -0.18011,0.0929 -0.35595,0.16663 -0.53909,0.24881 -0.5178,0.23138 -1.0405,0.39245 -1.57582,0.5391 -0.53311,0.14603 -1.07583,0.2678 -1.61727,0.33174 -0.27665,0.0327 -0.55311,0.0274 -0.82938,0.0414 l 0,1.9905 c 0.65716,0.11717 1.25045,0.48121 1.65875,1.07818 l 0.0414,0.083 c 0.50808,0.78255 0.52715,1.71222 0.16588,2.48812 l 2.23931,1.45141 c 0.73797,-0.95343 1.66595,-1.79278 2.73694,-2.48812 1.90184,-1.23481 4.02398,-1.84374 6.13736,-1.82463 3.52232,0.0318 6.9896,1.73245 9.12313,4.85184 l 0.12434,0.24881 c 1.86641,2.87466 2.25686,6.29664 1.327,9.33047 0.46204,-1.24667 0.74519,-2.56816 0.82938,-3.981 0.45152,-7.57711 -5.31967,-14.104 -12.89679,-14.55552 -0.0418,-0.002 -0.0826,0.002 -0.12433,0 2.52449,-4.34424 2.5864,-9.93659 -0.33175,-14.43112 l -0.16588,-0.24882 c -1.81921,-2.65981 -4.43055,-4.46569 -7.29849,-5.34946 z m -3.93953,12.85531 c -2.44518,-0.0224 -4.93222,0.66983 -7.13262,2.11491 -0.55111,0.36193 -1.05816,0.77292 -1.53435,1.20258 0.74869,1.10341 1.65441,2.02435 2.69547,2.73695 0.2961,-0.24821 0.58375,-0.48919 0.91232,-0.70498 1.55162,-1.01898 3.29349,-1.50865 5.01771,-1.49287 2.09254,0.0191 4.1299,0.7897 5.76415,2.19785 1.10593,-0.74932 2.02314,-1.65266 2.73695,-2.69548 -2.36257,-2.1454 -5.3736,-3.33073 -8.45963,-3.35896 z m 12.68944,12.02593 c -1.2769,0.074 -2.52431,0.39291 -3.73219,0.95378 0.007,3.03214 -1.45149,6.026 -4.14688,7.79612 -0.60797,0.39929 -1.25218,0.68293 -1.90755,0.91231 -0.0973,1.30723 0.0484,2.615 0.45615,3.89807 1.2174,-0.34713 2.4079,-0.88376 3.52485,-1.61728 4.10425,-2.6954 6.15873,-7.34212 5.80562,-11.943 z m -25.62768,0.12434 c -0.18689,2.72896 0.44729,5.53467 2.03196,8.00347 1.79334,2.79383 4.48379,4.62454 7.42291,5.4324 0.37325,-1.2385 0.51628,-2.55754 0.41469,-3.85659 -1.85917,-0.6461 -3.5333,-1.89497 -4.68597,-3.69072 -0.98913,-1.54098 -1.41493,-3.26973 -1.40994,-4.97625 -1.18812,-0.54751 -2.47043,-0.84115 -3.77365,-0.91231 z m 10.94774,2.69547 -2.23931,1.45141 0.083,0.20733 c 3.34955,5.15896 1.88293,12.03536 -3.27603,15.38491 -3.41032,2.2142 -7.59281,2.33382 -10.98922,0.6635 2.2296,1.39044 4.86448,2.17313 7.67172,2.07343 l 0.29028,0 c 4.29451,-0.25591 7.99256,-2.47519 10.32572,-5.72268 2.33308,3.24829 6.07203,5.46674 10.36718,5.72268 l 0.29028,0 c 3.11334,0.11054 5.97555,-0.88682 8.33522,-2.57106 -0.71996,0.41886 -1.47438,0.71134 -2.23931,0.95378 -0.30085,0.0953 -0.60741,0.18013 -0.91231,0.24881 -1.04896,0.23629 -2.0977,0.31894 -3.15164,0.24881 -0.86224,-0.0573 -1.70458,-0.20239 -2.52958,-0.45615 -0.28155,-0.0867 -0.55502,-0.18141 -0.82938,-0.29028 -0.50489,-0.20034 -1.0193,-0.43073 -1.49287,-0.70497 -0.32623,-0.18891 -0.64605,-0.39881 -0.95379,-0.62203 -0.20006,-0.14554 -0.39114,-0.29786 -0.58055,-0.45615 -0.30369,-0.25275 -0.59209,-0.54125 -0.87085,-0.82938 -0.17153,-0.17825 -0.33837,-0.34978 -0.49763,-0.53909 -0.23272,-0.27559 -0.45452,-0.56813 -0.6635,-0.87085 -0.0609,-0.0883 -0.14857,-0.1583 -0.20734,-0.24881 -0.252,-0.38812 -0.42407,-0.79726 -0.62202,-1.2026 -0.24836,-0.50851 -0.45706,-1.00667 -0.62204,-1.53434 -0.99796,-3.19166 -0.50765,-6.65463 1.28554,-9.41339 l -2.28079,-1.40995 c -0.11213,0.1052 -0.23886,0.20305 -0.37321,0.29029 -1.07308,0.69669 -2.46981,0.52244 -3.3175,-0.37322 z"
       id="path3881-1-7-1-0"
       inkscape:connector-curvature="0"
       transform="matrix(1.2357316,0,0,1.2871974,-196.12655,-162.29625)"
       inkscape:export-filename="D:\Development\Projects\infected_ember\public\assets\images\app_icon_64x64_transparent.png"
       inkscape:export-xdpi="91.116081"
       inkscape:export-ydpi="91.116081"
       mask="none"
       clip-path="url(#clipPath3126)" />
    <path
       style="fill:#00ff14;fill-opacity:1;stroke:none;filter:url(#filter4396)"
       d="m 339.53884,452.91071 c -1.45977,0.3657 -2.892,0.95603 -4.22981,1.82462 -6.18572,4.01621 -8.08413,12.15568 -4.39568,18.45359 -0.0279,10e-4 -0.0551,-10e-4 -0.083,0 -7.57712,0.45152 -13.3483,6.97841 -12.89678,14.55553 0.076,1.27484 0.32025,2.46757 0.70498,3.60778 -1.17543,-4.50946 0.59968,-9.42885 4.72743,-12.10888 1.90184,-1.23479 4.02398,-1.84373 6.13737,-1.82462 3.29315,0.0297 6.51504,1.52846 8.66697,4.27128 l 2.32224,-1.4514 c -0.59428,-1.17254 -0.25583,-2.62747 0.87084,-3.35898 0.2972,-0.19295 0.62213,-0.31467 0.95379,-0.37321 l 0,-1.94903 c -0.4584,-0.022 -0.9177,-0.0894 -1.36846,-0.16588 -0.0268,-0.004 -0.0562,0.005 -0.083,0 -0.0428,-0.007 -0.0819,-0.0334 -0.12434,-0.0414 -0.083,-0.0156 -0.16632,-0.0239 -0.24881,-0.0414 -0.40602,-0.0865 -0.80832,-0.20016 -1.2026,-0.33175 -0.51338,-0.17134 -1.00741,-0.37598 -1.49286,-0.62203 -0.41253,-0.2091 -0.81632,-0.44322 -1.2026,-0.70497 -0.067,-0.0454 -0.14117,-0.0773 -0.20735,-0.12434 -1.02397,-0.72738 -1.90058,-1.64693 -2.654,-2.73693 -0.0616,-0.089 -0.148,-0.15742 -0.20734,-0.24881 -0.82535,-1.27118 -1.36287,-2.66241 -1.61728,-4.06395 -0.002,-0.0134 0.002,-0.0281 0,-0.0414 -0.006,-0.04 0.006,-0.0846 0,-0.12435 -0.1112,-0.66822 -0.17813,-1.32059 -0.16587,-1.9905 0.0133,-0.69625 0.10669,-1.39424 0.24881,-2.07343 0.002,-0.0133 -0.002,-0.0284 0,-0.0414 0.0708,-0.33289 0.14752,-0.66998 0.24881,-0.99525 0.004,-0.0119 -0.004,-0.0291 0,-0.0414 0.10254,-0.32534 0.24068,-0.63847 0.37322,-0.95378 0.005,-0.0119 -0.005,-0.03 0,-0.0414 0.13383,-0.31527 0.29283,-0.60947 0.45615,-0.91231 0.005,-0.0106 -0.005,-0.0313 0,-0.0414 0.16492,-0.3033 0.38647,-0.58245 0.58057,-0.87085 0.006,-0.01 -0.006,-0.0321 0,-0.0414 0.19522,-0.2881 0.39808,-0.55857 0.62203,-0.82938 0.006,-0.007 -0.006,-0.0338 0,-0.0414 0.69657,-0.83699 1.52594,-1.57315 2.48813,-2.19784 0.88152,-0.57233 1.82478,-1.02524 2.77839,-1.327 z m 7.2985,0.24881 c 2.0035,0.78438 3.80054,2.16309 5.10065,4.06393 l 0.12435,0.24882 c 2.21019,3.40409 2.30179,7.56293 0.62202,10.94774 -0.24457,0.49284 -0.51026,0.95449 -0.82936,1.40995 -0.7931,1.1319 -1.7954,2.1445 -3.02722,2.94427 -0.01,0.006 -0.0321,-0.006 -0.0414,0 -0.24409,0.15848 -0.49505,0.31926 -0.74643,0.45616 -0.0693,0.0376 -0.13751,0.0885 -0.20735,0.12434 -0.18011,0.0929 -0.35595,0.16663 -0.53909,0.24881 -0.5178,0.23138 -1.0405,0.39245 -1.57582,0.5391 -0.53311,0.14603 -1.07583,0.2678 -1.61727,0.33174 -0.27665,0.0327 -0.55311,0.0274 -0.82938,0.0414 l 0,1.9905 c 0.65716,0.11717 1.25045,0.48121 1.65875,1.07818 l 0.0414,0.083 c 0.50808,0.78255 0.52715,1.71222 0.16588,2.48812 l 2.23931,1.45141 c 0.73797,-0.95343 1.66595,-1.79278 2.73694,-2.48812 1.90184,-1.23481 4.02398,-1.84374 6.13736,-1.82463 3.52232,0.0318 6.9896,1.73245 9.12313,4.85184 l 0.12434,0.24881 c 1.86641,2.87466 2.25686,6.29664 1.327,9.33047 0.46204,-1.24667 0.74519,-2.56816 0.82938,-3.981 0.45152,-7.57711 -5.31967,-14.104 -12.89679,-14.55552 -0.0418,-0.002 -0.0826,0.002 -0.12433,0 2.52449,-4.34424 2.5864,-9.93659 -0.33175,-14.43112 l -0.16588,-0.24882 c -1.81921,-2.65981 -4.43055,-4.46569 -7.29849,-5.34946 z m -3.93953,12.85531 c -2.44518,-0.0224 -4.93222,0.66983 -7.13262,2.11491 -0.55111,0.36193 -1.05816,0.77292 -1.53435,1.20258 0.74869,1.10341 1.65441,2.02435 2.69547,2.73695 0.2961,-0.24821 0.58375,-0.48919 0.91232,-0.70498 1.55162,-1.01898 3.29349,-1.50865 5.01771,-1.49287 2.09254,0.0191 4.1299,0.7897 5.76415,2.19785 1.10593,-0.74932 2.02314,-1.65266 2.73695,-2.69548 -2.36257,-2.1454 -5.3736,-3.33073 -8.45963,-3.35896 z m 12.68944,12.02593 c -1.2769,0.074 -2.52431,0.39291 -3.73219,0.95378 0.007,3.03214 -1.45149,6.026 -4.14688,7.79612 -0.60797,0.39929 -1.25218,0.68293 -1.90755,0.91231 -0.0973,1.30723 0.0484,2.615 0.45615,3.89807 1.2174,-0.34713 2.4079,-0.88376 3.52485,-1.61728 4.10425,-2.6954 6.15873,-7.34212 5.80562,-11.943 z m -25.62768,0.12434 c -0.18689,2.72896 0.44729,5.53467 2.03196,8.00347 1.79334,2.79383 4.48379,4.62454 7.42291,5.4324 0.37325,-1.2385 0.51628,-2.55754 0.41469,-3.85659 -1.85917,-0.6461 -3.5333,-1.89497 -4.68597,-3.69072 -0.98913,-1.54098 -1.41493,-3.26973 -1.40994,-4.97625 -1.18812,-0.54751 -2.47043,-0.84115 -3.77365,-0.91231 z m 10.94774,2.69547 -2.23931,1.45141 0.083,0.20733 c 3.34955,5.15896 1.88293,12.03536 -3.27603,15.38491 -3.41032,2.2142 -7.59281,2.33382 -10.98922,0.6635 2.2296,1.39044 4.86448,2.17313 7.67172,2.07343 l 0.29028,0 c 4.29451,-0.25591 7.99256,-2.47519 10.32572,-5.72268 2.33308,3.24829 6.07203,5.46674 10.36718,5.72268 l 0.29028,0 c 3.11334,0.11054 5.97555,-0.88682 8.33522,-2.57106 -0.71996,0.41886 -1.47438,0.71134 -2.23931,0.95378 -0.30085,0.0953 -0.60741,0.18013 -0.91231,0.24881 -1.04896,0.23629 -2.0977,0.31894 -3.15164,0.24881 -0.86224,-0.0573 -1.70458,-0.20239 -2.52958,-0.45615 -0.28155,-0.0867 -0.55502,-0.18141 -0.82938,-0.29028 -0.50489,-0.20034 -1.0193,-0.43073 -1.49287,-0.70497 -0.32623,-0.18891 -0.64605,-0.39881 -0.95379,-0.62203 -0.20006,-0.14554 -0.39114,-0.29786 -0.58055,-0.45615 -0.30369,-0.25275 -0.59209,-0.54125 -0.87085,-0.82938 -0.17153,-0.17825 -0.33837,-0.34978 -0.49763,-0.53909 -0.23272,-0.27559 -0.45452,-0.56813 -0.6635,-0.87085 -0.0609,-0.0883 -0.14857,-0.1583 -0.20734,-0.24881 -0.252,-0.38812 -0.42407,-0.79726 -0.62202,-1.2026 -0.24836,-0.50851 -0.45706,-1.00667 -0.62204,-1.53434 -0.99796,-3.19166 -0.50765,-6.65463 1.28554,-9.41339 l -2.28079,-1.40995 c -0.11213,0.1052 -0.23886,0.20305 -0.37321,0.29029 -1.07308,0.69669 -2.46981,0.52244 -3.3175,-0.37322 z"
       id="path3881-1-7-1"
       inkscape:connector-curvature="0"
       transform="matrix(1.0497538,0,0,1.0661035,-45.563629,-56.071925)" />
  </g>
</svg>
